<svg width="24" height="24" viewBox="0 0 24 24" fill="none" xmlns="http://www.w3.org/2000/svg">
<path d="M18.5023 6.95098L16.1365 3.79657C15.4993 2.94704 14.3095 2.74323 13.426 3.33227L7.92773 6.99776" stroke="#00CBBF" stroke-width="1.5" stroke-linecap="round" stroke-linejoin="round"/>
<path fill-rule="evenodd" clip-rule="evenodd" d="M18.501 11.498H21.0021C21.5546 11.498 22.0025 11.9459 22.0025 12.4985V15.4997C22.0025 16.0522 21.5546 16.5001 21.0021 16.5001H18.501C17.1198 16.5001 16 15.3804 16 13.9991V13.9991C16 12.6178 17.1198 11.498 18.501 11.498V11.498Z" stroke="#00CBBF" stroke-width="1.5" stroke-linecap="round" stroke-linejoin="round"/>
<path d="M21.0036 11.498V9.49714C21.0036 8.11585 19.8838 6.99609 18.5026 6.99609H5.49714C4.11585 6.99609 2.99609 8.11585 2.99609 9.49714V18.5009C2.99609 19.8822 4.11585 21.0019 5.49714 21.0019H18.5026C19.8838 21.0019 21.0036 19.8822 21.0036 18.5009V16.5001" stroke="#00CBBF" stroke-width="1.5" stroke-linecap="round" stroke-linejoin="round"/>
</svg>
