<svg width="559" height="24" viewBox="0 0 559 24" fill="none" xmlns="http://www.w3.org/2000/svg">
<path d="M17 17V19C17.0001 19.5303 16.7896 20.0389 16.4148 20.414C16.0399 20.7891 15.5314 20.9999 15.0011 21H6C5.46971 21.0001 4.96108 20.7896 4.58601 20.4148C4.21094 20.0399 4.00014 19.5314 4 19.0011V8C3.99985 7.46971 4.21037 6.96108 4.58523 6.58601C4.9601 6.21094 5.46861 6.00014 5.9989 6H8" stroke="#00CBBF" stroke-width="1.5" stroke-linecap="round" stroke-linejoin="round"/>
<path d="M20 7.5H17C16.1716 7.5 15.5 6.82843 15.5 6V3" stroke="#00CBBF" stroke-width="1.5" stroke-linecap="round" stroke-linejoin="round"/>
<path fill-rule="evenodd" clip-rule="evenodd" d="M8 15V5C8 3.89543 8.89543 3 10 3H16.0605C16.5909 3 17.0996 3.21071 17.4747 3.58579L19.4142 5.52532C19.7893 5.90039 20 6.4091 20 6.93954V15C20 16.1046 19.1046 17 18 17H10C8.89543 17 8 16.1046 8 15Z" stroke="#00CBBF" stroke-width="1.5" stroke-linecap="round" stroke-linejoin="round"/>
<path d="M12.3984 11.3L13.5995 12.5L15.5984 10.5" stroke="#00CBBF" stroke-width="1.5" stroke-linecap="round" stroke-linejoin="round"/>
<path d="M37.296 6.94C38.9493 6.94 40.2347 7.39867 41.152 8.316C42.08 9.22267 42.544 10.524 42.544 12.22C42.544 13.916 42.08 15.2227 41.152 16.14C40.2347 17.0467 38.9493 17.5 37.296 17.5H33.568V6.94H37.296ZM37.296 16.044C38.416 16.044 39.2693 15.7133 39.856 15.052C40.4533 14.38 40.752 13.436 40.752 12.22C40.752 11.004 40.4533 10.0653 39.856 9.404C39.2693 8.732 38.416 8.396 37.296 8.396H35.28V16.044H37.296ZM49.4364 12.364C49.4364 11.8307 49.287 11.42 48.9884 11.132C48.7004 10.8333 48.3004 10.684 47.7884 10.684C47.3084 10.684 46.8977 10.796 46.5564 11.02C46.215 11.244 45.9644 11.6067 45.8044 12.108L44.3644 11.5C44.567 10.8493 44.9617 10.3267 45.5484 9.932C46.1457 9.53733 46.9137 9.34 47.8524 9.34C48.4924 9.34 49.0577 9.44667 49.5484 9.66C50.039 9.86267 50.423 10.172 50.7004 10.588C50.9884 11.004 51.1324 11.5373 51.1324 12.188V15.756C51.1324 16.1507 51.3297 16.348 51.7244 16.348C51.9164 16.348 52.103 16.3213 52.2844 16.268L52.1884 17.452C51.943 17.5693 51.6337 17.628 51.2604 17.628C50.919 17.628 50.6097 17.5693 50.3324 17.452C50.0657 17.324 49.8524 17.1373 49.6924 16.892C49.543 16.636 49.4684 16.3213 49.4684 15.948V15.836L49.8204 15.82C49.7244 16.236 49.527 16.5827 49.2284 16.86C48.9297 17.1267 48.583 17.3293 48.1884 17.468C47.7937 17.596 47.3937 17.66 46.9884 17.66C46.487 17.66 46.0337 17.58 45.6284 17.42C45.2337 17.26 44.919 17.02 44.6844 16.7C44.4604 16.3693 44.3484 15.964 44.3484 15.484C44.3484 14.8867 44.5404 14.396 44.9244 14.012C45.319 13.628 45.8737 13.3667 46.5884 13.228L49.6924 12.62L49.6764 13.82L47.4204 14.284C46.9724 14.3693 46.6364 14.492 46.4124 14.652C46.1884 14.812 46.0764 15.0467 46.0764 15.356C46.0764 15.6547 46.1884 15.8947 46.4124 16.076C46.647 16.2467 46.9564 16.332 47.3404 16.332C47.607 16.332 47.863 16.3 48.1084 16.236C48.3644 16.172 48.5937 16.0707 48.7964 15.932C48.999 15.7827 49.1537 15.596 49.2604 15.372C49.3777 15.1373 49.4364 14.86 49.4364 14.54V12.364ZM55.9609 7.148V15.1C55.9609 15.4947 56.0622 15.7827 56.2649 15.964C56.4782 16.1453 56.7609 16.236 57.1129 16.236C57.4009 16.236 57.6515 16.1933 57.8649 16.108C58.0782 16.012 58.2755 15.884 58.4569 15.724L58.8409 16.972C58.5955 17.1853 58.2915 17.356 57.9289 17.484C57.5769 17.6013 57.1822 17.66 56.7449 17.66C56.2862 17.66 55.8649 17.5853 55.4809 17.436C55.0969 17.2867 54.7982 17.0467 54.5849 16.716C54.3715 16.3747 54.2595 15.932 54.2489 15.388V7.628L55.9609 7.148ZM58.7129 9.5V10.844H52.7129V9.5H58.7129ZM63.8781 9.34C64.6568 9.34 65.3448 9.50533 65.9421 9.836C66.5395 10.1667 67.0035 10.6467 67.3341 11.276C67.6755 11.8947 67.8461 12.636 67.8461 13.5C67.8461 14.364 67.6755 15.1107 67.3341 15.74C67.0035 16.3587 66.5395 16.8333 65.9421 17.164C65.3448 17.4947 64.6568 17.66 63.8781 17.66C63.0995 17.66 62.4115 17.4947 61.8141 17.164C61.2168 16.8333 60.7475 16.3587 60.4061 15.74C60.0648 15.1107 59.8941 14.364 59.8941 13.5C59.8941 12.636 60.0648 11.8947 60.4061 11.276C60.7475 10.6467 61.2168 10.1667 61.8141 9.836C62.4115 9.50533 63.0995 9.34 63.8781 9.34ZM63.8781 10.684C63.3981 10.684 62.9875 10.796 62.6461 11.02C62.3155 11.2333 62.0595 11.548 61.8781 11.964C61.6968 12.38 61.6061 12.892 61.6061 13.5C61.6061 14.0973 61.6968 14.6093 61.8781 15.036C62.0595 15.452 62.3155 15.772 62.6461 15.996C62.9875 16.2093 63.3981 16.316 63.8781 16.316C64.3581 16.316 64.7635 16.2093 65.0941 15.996C65.4248 15.772 65.6808 15.452 65.8621 15.036C66.0435 14.6093 66.1341 14.0973 66.1341 13.5C66.1341 12.892 66.0435 12.38 65.8621 11.964C65.6808 11.548 65.4248 11.2333 65.0941 11.02C64.7635 10.796 64.3581 10.684 63.8781 10.684ZM73.0399 17.66C72.2399 17.66 71.5092 17.5053 70.8479 17.196C70.1865 16.8867 69.6639 16.4493 69.2799 15.884L70.4639 14.86C70.6985 15.2973 71.0345 15.6493 71.4719 15.916C71.9199 16.172 72.4532 16.3 73.0719 16.3C73.5625 16.3 73.9519 16.2147 74.2399 16.044C74.5279 15.8733 74.6719 15.6333 74.6719 15.324C74.6719 15.1213 74.6025 14.9453 74.4639 14.796C74.3359 14.636 74.0852 14.5133 73.7119 14.428L72.0319 14.076C71.1785 13.9053 70.5705 13.6333 70.2079 13.26C69.8452 12.876 69.6639 12.3907 69.6639 11.804C69.6639 11.3667 69.7919 10.9613 70.0479 10.588C70.3039 10.2147 70.6772 9.916 71.1679 9.692C71.6692 9.45733 72.2665 9.34 72.9599 9.34C73.7599 9.34 74.4425 9.484 75.0079 9.772C75.5732 10.0493 76.0052 10.4493 76.3039 10.972L75.1199 11.964C74.9172 11.5373 74.6185 11.2227 74.2239 11.02C73.8292 10.8067 73.4185 10.7 72.9919 10.7C72.6505 10.7 72.3572 10.7427 72.1119 10.828C71.8665 10.9133 71.6799 11.0307 71.5519 11.18C71.4239 11.3293 71.3599 11.5053 71.3599 11.708C71.3599 11.9213 71.4399 12.108 71.5999 12.268C71.7599 12.428 72.0479 12.5507 72.4639 12.636L74.2879 13.02C75.0559 13.1693 75.5945 13.4253 75.9039 13.788C76.2239 14.14 76.3839 14.572 76.3839 15.084C76.3839 15.596 76.2505 16.0493 75.9839 16.444C75.7172 16.828 75.3332 17.1267 74.8319 17.34C74.3305 17.5533 73.7332 17.66 73.0399 17.66ZM83.6718 20.86V9.5H85.1918L85.3198 11.74L85.0958 11.468C85.2238 11.052 85.4211 10.684 85.6878 10.364C85.9544 10.044 86.2851 9.79333 86.6798 9.612C87.0851 9.43067 87.5278 9.34 88.0078 9.34C88.6584 9.34 89.2504 9.50533 89.7838 9.836C90.3171 10.1667 90.7384 10.6413 91.0478 11.26C91.3571 11.868 91.5118 12.6093 91.5118 13.484C91.5118 14.3587 91.3518 15.1107 91.0318 15.74C90.7224 16.3587 90.2958 16.8333 89.7518 17.164C89.2184 17.4947 88.6211 17.66 87.9598 17.66C87.2771 17.66 86.6958 17.484 86.2158 17.132C85.7358 16.7693 85.3944 16.3107 85.1918 15.756L85.3838 15.484V20.86H83.6718ZM87.5918 16.268C88.2851 16.268 88.8238 16.0227 89.2078 15.532C89.6024 15.0413 89.7998 14.364 89.7998 13.5C89.7998 12.636 89.6078 11.9587 89.2238 11.468C88.8398 10.9667 88.3064 10.716 87.6238 10.716C87.1758 10.716 86.7811 10.8333 86.4398 11.068C86.1091 11.292 85.8478 11.612 85.6558 12.028C85.4744 12.4333 85.3838 12.924 85.3838 13.5C85.3838 14.0653 85.4744 14.556 85.6558 14.972C85.8371 15.388 86.0931 15.708 86.4238 15.932C86.7544 16.156 87.1438 16.268 87.5918 16.268ZM97.223 17.66C96.423 17.66 95.719 17.4947 95.111 17.164C94.503 16.8333 94.0283 16.3587 93.687 15.74C93.3563 15.1107 93.191 14.364 93.191 13.5C93.191 12.636 93.3563 11.8947 93.687 11.276C94.0283 10.6467 94.4977 10.1667 95.095 9.836C95.6923 9.50533 96.3697 9.34 97.127 9.34C97.9057 9.34 98.567 9.5 99.111 9.82C99.655 10.14 100.071 10.5773 100.359 11.132C100.647 11.6867 100.791 12.316 100.791 13.02C100.791 13.212 100.786 13.3933 100.775 13.564C100.764 13.7347 100.748 13.884 100.727 14.012H94.295V12.7H99.975L99.127 12.956C99.127 12.2307 98.9457 11.676 98.583 11.292C98.2203 10.8973 97.7243 10.7 97.095 10.7C96.6363 10.7 96.2363 10.8067 95.895 11.02C95.5537 11.2333 95.2923 11.5533 95.111 11.98C94.9297 12.396 94.839 12.908 94.839 13.516C94.839 14.1133 94.935 14.62 95.127 15.036C95.319 15.452 95.591 15.7667 95.943 15.98C96.295 16.1933 96.711 16.3 97.191 16.3C97.7243 16.3 98.1563 16.1987 98.487 15.996C98.8177 15.7933 99.079 15.5107 99.271 15.148L100.631 15.788C100.439 16.172 100.178 16.508 99.847 16.796C99.527 17.0733 99.143 17.2867 98.695 17.436C98.247 17.5853 97.7563 17.66 97.223 17.66ZM102.953 17.5V9.5H104.409L104.569 10.94C104.782 10.4173 105.097 10.0227 105.513 9.756C105.94 9.47867 106.462 9.34 107.081 9.34C107.241 9.34 107.401 9.356 107.561 9.388C107.721 9.40933 107.854 9.44667 107.961 9.5L107.721 11.004C107.604 10.9613 107.47 10.9293 107.321 10.908C107.182 10.876 106.99 10.86 106.745 10.86C106.414 10.86 106.089 10.9507 105.769 11.132C105.449 11.3027 105.182 11.564 104.969 11.916C104.766 12.268 104.665 12.716 104.665 13.26V17.5H102.953ZM112.337 17.66C111.537 17.66 110.806 17.5053 110.145 17.196C109.483 16.8867 108.961 16.4493 108.577 15.884L109.761 14.86C109.995 15.2973 110.331 15.6493 110.769 15.916C111.217 16.172 111.75 16.3 112.369 16.3C112.859 16.3 113.249 16.2147 113.537 16.044C113.825 15.8733 113.969 15.6333 113.969 15.324C113.969 15.1213 113.899 14.9453 113.761 14.796C113.633 14.636 113.382 14.5133 113.009 14.428L111.329 14.076C110.475 13.9053 109.867 13.6333 109.505 13.26C109.142 12.876 108.961 12.3907 108.961 11.804C108.961 11.3667 109.089 10.9613 109.345 10.588C109.601 10.2147 109.974 9.916 110.465 9.692C110.966 9.45733 111.563 9.34 112.257 9.34C113.057 9.34 113.739 9.484 114.305 9.772C114.87 10.0493 115.302 10.4493 115.601 10.972L114.417 11.964C114.214 11.5373 113.915 11.2227 113.521 11.02C113.126 10.8067 112.715 10.7 112.289 10.7C111.947 10.7 111.654 10.7427 111.409 10.828C111.163 10.9133 110.977 11.0307 110.849 11.18C110.721 11.3293 110.657 11.5053 110.657 11.708C110.657 11.9213 110.737 12.108 110.897 12.268C111.057 12.428 111.345 12.5507 111.761 12.636L113.585 13.02C114.353 13.1693 114.891 13.4253 115.201 13.788C115.521 14.14 115.681 14.572 115.681 15.084C115.681 15.596 115.547 16.0493 115.281 16.444C115.014 16.828 114.63 17.1267 114.129 17.34C113.627 17.5533 113.03 17.66 112.337 17.66ZM121.222 9.34C122.001 9.34 122.689 9.50533 123.286 9.836C123.883 10.1667 124.347 10.6467 124.678 11.276C125.019 11.8947 125.19 12.636 125.19 13.5C125.19 14.364 125.019 15.1107 124.678 15.74C124.347 16.3587 123.883 16.8333 123.286 17.164C122.689 17.4947 122.001 17.66 121.222 17.66C120.443 17.66 119.755 17.4947 119.158 17.164C118.561 16.8333 118.091 16.3587 117.75 15.74C117.409 15.1107 117.238 14.364 117.238 13.5C117.238 12.636 117.409 11.8947 117.75 11.276C118.091 10.6467 118.561 10.1667 119.158 9.836C119.755 9.50533 120.443 9.34 121.222 9.34ZM121.222 10.684C120.742 10.684 120.331 10.796 119.99 11.02C119.659 11.2333 119.403 11.548 119.222 11.964C119.041 12.38 118.95 12.892 118.95 13.5C118.95 14.0973 119.041 14.6093 119.222 15.036C119.403 15.452 119.659 15.772 119.99 15.996C120.331 16.2093 120.742 16.316 121.222 16.316C121.702 16.316 122.107 16.2093 122.438 15.996C122.769 15.772 123.025 15.452 123.206 15.036C123.387 14.6093 123.478 14.0973 123.478 13.5C123.478 12.892 123.387 12.38 123.206 11.964C123.025 11.548 122.769 11.2333 122.438 11.02C122.107 10.796 121.702 10.684 121.222 10.684ZM127.344 17.5V9.5H128.864L128.976 11.58L128.752 11.356C128.901 10.8973 129.114 10.5187 129.392 10.22C129.68 9.91067 130.016 9.68667 130.4 9.548C130.794 9.40933 131.21 9.34 131.648 9.34C132.213 9.34 132.72 9.452 133.168 9.676C133.626 9.88933 133.989 10.2147 134.256 10.652C134.522 11.0893 134.656 11.644 134.656 12.316V17.5H132.944V12.844C132.944 12.0547 132.778 11.5107 132.448 11.212C132.128 10.9027 131.722 10.748 131.232 10.748C130.88 10.748 130.538 10.8333 130.208 11.004C129.877 11.164 129.6 11.4253 129.376 11.788C129.162 12.1507 129.056 12.636 129.056 13.244V17.5H127.344ZM141.874 12.364C141.874 11.8307 141.725 11.42 141.426 11.132C141.138 10.8333 140.738 10.684 140.226 10.684C139.746 10.684 139.335 10.796 138.994 11.02C138.653 11.244 138.402 11.6067 138.242 12.108L136.802 11.5C137.005 10.8493 137.399 10.3267 137.986 9.932C138.583 9.53733 139.351 9.34 140.29 9.34C140.93 9.34 141.495 9.44667 141.986 9.66C142.477 9.86267 142.861 10.172 143.138 10.588C143.426 11.004 143.57 11.5373 143.57 12.188V15.756C143.57 16.1507 143.767 16.348 144.162 16.348C144.354 16.348 144.541 16.3213 144.722 16.268L144.626 17.452C144.381 17.5693 144.071 17.628 143.698 17.628C143.357 17.628 143.047 17.5693 142.77 17.452C142.503 17.324 142.29 17.1373 142.13 16.892C141.981 16.636 141.906 16.3213 141.906 15.948V15.836L142.258 15.82C142.162 16.236 141.965 16.5827 141.666 16.86C141.367 17.1267 141.021 17.3293 140.626 17.468C140.231 17.596 139.831 17.66 139.426 17.66C138.925 17.66 138.471 17.58 138.066 17.42C137.671 17.26 137.357 17.02 137.122 16.7C136.898 16.3693 136.786 15.964 136.786 15.484C136.786 14.8867 136.978 14.396 137.362 14.012C137.757 13.628 138.311 13.3667 139.026 13.228L142.13 12.62L142.114 13.82L139.858 14.284C139.41 14.3693 139.074 14.492 138.85 14.652C138.626 14.812 138.514 15.0467 138.514 15.356C138.514 15.6547 138.626 15.8947 138.85 16.076C139.085 16.2467 139.394 16.332 139.778 16.332C140.045 16.332 140.301 16.3 140.546 16.236C140.802 16.172 141.031 16.0707 141.234 15.932C141.437 15.7827 141.591 15.596 141.698 15.372C141.815 15.1373 141.874 14.86 141.874 14.54V12.364ZM148.039 5.9V15.26C148.039 15.6547 148.108 15.9267 148.247 16.076C148.386 16.2253 148.615 16.3 148.935 16.3C149.127 16.3 149.287 16.2893 149.415 16.268C149.554 16.236 149.724 16.1827 149.927 16.108L149.735 17.388C149.554 17.4733 149.346 17.5373 149.111 17.58C148.876 17.6333 148.642 17.66 148.407 17.66C147.692 17.66 147.164 17.4787 146.823 17.116C146.492 16.7427 146.327 16.172 146.327 15.404V5.9H148.039ZM154.879 17.66C154.079 17.66 153.375 17.4947 152.767 17.164C152.159 16.8333 151.685 16.3587 151.343 15.74C151.013 15.1107 150.847 14.364 150.847 13.5C150.847 12.636 151.013 11.8947 151.343 11.276C151.685 10.6467 152.154 10.1667 152.751 9.836C153.349 9.50533 154.026 9.34 154.783 9.34C155.562 9.34 156.223 9.5 156.767 9.82C157.311 10.14 157.727 10.5773 158.015 11.132C158.303 11.6867 158.447 12.316 158.447 13.02C158.447 13.212 158.442 13.3933 158.431 13.564C158.421 13.7347 158.405 13.884 158.383 14.012H151.951V12.7H157.631L156.783 12.956C156.783 12.2307 156.602 11.676 156.239 11.292C155.877 10.8973 155.381 10.7 154.751 10.7C154.293 10.7 153.893 10.8067 153.551 11.02C153.21 11.2333 152.949 11.5533 152.767 11.98C152.586 12.396 152.495 12.908 152.495 13.516C152.495 14.1133 152.591 14.62 152.783 15.036C152.975 15.452 153.247 15.7667 153.599 15.98C153.951 16.1933 154.367 16.3 154.847 16.3C155.381 16.3 155.813 16.1987 156.143 15.996C156.474 15.7933 156.735 15.5107 156.927 15.148L158.287 15.788C158.095 16.172 157.834 16.508 157.503 16.796C157.183 17.0733 156.799 17.2867 156.351 17.436C155.903 17.5853 155.413 17.66 154.879 17.66ZM163.649 17.66C162.849 17.66 162.119 17.5053 161.457 17.196C160.796 16.8867 160.273 16.4493 159.889 15.884L161.073 14.86C161.308 15.2973 161.644 15.6493 162.081 15.916C162.529 16.172 163.063 16.3 163.681 16.3C164.172 16.3 164.561 16.2147 164.849 16.044C165.137 15.8733 165.281 15.6333 165.281 15.324C165.281 15.1213 165.212 14.9453 165.073 14.796C164.945 14.636 164.695 14.5133 164.321 14.428L162.641 14.076C161.788 13.9053 161.18 13.6333 160.817 13.26C160.455 12.876 160.273 12.3907 160.273 11.804C160.273 11.3667 160.401 10.9613 160.657 10.588C160.913 10.2147 161.287 9.916 161.777 9.692C162.279 9.45733 162.876 9.34 163.569 9.34C164.369 9.34 165.052 9.484 165.617 9.772C166.183 10.0493 166.615 10.4493 166.913 10.972L165.729 11.964C165.527 11.5373 165.228 11.2227 164.833 11.02C164.439 10.8067 164.028 10.7 163.601 10.7C163.26 10.7 162.967 10.7427 162.721 10.828C162.476 10.9133 162.289 11.0307 162.161 11.18C162.033 11.3293 161.969 11.5053 161.969 11.708C161.969 11.9213 162.049 12.108 162.209 12.268C162.369 12.428 162.657 12.5507 163.073 12.636L164.897 13.02C165.665 13.1693 166.204 13.4253 166.513 13.788C166.833 14.14 166.993 14.572 166.993 15.084C166.993 15.596 166.86 16.0493 166.593 16.444C166.327 16.828 165.943 17.1267 165.441 17.34C164.94 17.5533 164.343 17.66 163.649 17.66Z" fill="#505050"/>
</svg>
