<svg width="559" height="25" viewBox="0 0 559 25" fill="none" xmlns="http://www.w3.org/2000/svg">
<path d="M13.1853 8.08464C13.8398 8.73916 13.8398 9.80034 13.1853 10.4549C12.5308 11.1094 11.4696 11.1094 10.8151 10.4549C10.1606 9.80034 10.1606 8.73916 10.8151 8.08464C11.4696 7.43012 12.5308 7.43012 13.1853 8.08464" stroke="#00CBBF" stroke-width="1.5" stroke-linecap="round" stroke-linejoin="round"/>
<path d="M17.4856 9.05578V9.05578C17.4856 10.5458 16.8236 11.9578 15.6796 12.9118L13.8806 14.4108C13.1636 15.0088 12.6276 15.7938 12.3326 16.6798L12.0006 17.6758L11.6686 16.6798C11.3736 15.7948 10.8376 15.0088 10.1206 14.4108L8.32162 12.9118C7.17663 11.9578 6.51562 10.5458 6.51562 9.05578V9.05578V9.08378C6.51562 5.66178 9.34963 3.67578 12.0006 3.67578C14.6516 3.67578 17.4856 5.66178 17.4856 9.08378" stroke="#00CBBF" stroke-width="1.5" stroke-linecap="round" stroke-linejoin="round"/>
<path d="M7 15.2734C4.591 15.9004 3 16.9634 3 18.1754C3 20.1084 7.029 21.6754 12 21.6754C16.971 21.6754 21 20.1084 21 18.1754C21 16.9634 19.409 15.8994 17 15.2734" stroke="#00CBBF" stroke-width="1.5" stroke-linecap="round" stroke-linejoin="round"/>
<path d="M37.296 7.61578C38.9493 7.61578 40.2347 8.07445 41.152 8.99178C42.08 9.89845 42.544 11.1998 42.544 12.8958C42.544 14.5918 42.08 15.8984 41.152 16.8158C40.2347 17.7224 38.9493 18.1758 37.296 18.1758H33.568V7.61578H37.296ZM37.296 16.7198C38.416 16.7198 39.2693 16.3891 39.856 15.7278C40.4533 15.0558 40.752 14.1118 40.752 12.8958C40.752 11.6798 40.4533 10.7411 39.856 10.0798C39.2693 9.40778 38.416 9.07178 37.296 9.07178H35.28V16.7198H37.296ZM45.6451 8.83178C45.2718 8.83178 44.9838 8.74111 44.7811 8.55978C44.5891 8.36778 44.4931 8.10111 44.4931 7.75978C44.4931 7.41845 44.5891 7.15711 44.7811 6.97578C44.9838 6.79445 45.2718 6.70378 45.6451 6.70378C46.0078 6.70378 46.2851 6.79445 46.4771 6.97578C46.6798 7.15711 46.7811 7.41845 46.7811 7.75978C46.7811 8.10111 46.6798 8.36778 46.4771 8.55978C46.2851 8.74111 46.0078 8.83178 45.6451 8.83178ZM46.4931 10.1758V18.1758H44.7811V10.1758H46.4931ZM49.1718 18.1758V10.1758H50.6278L50.7878 11.6158C51.0011 11.0931 51.3158 10.6984 51.7318 10.4318C52.1584 10.1544 52.6811 10.0158 53.2998 10.0158C53.4598 10.0158 53.6198 10.0318 53.7798 10.0638C53.9398 10.0851 54.0731 10.1224 54.1798 10.1758L53.9398 11.6798C53.8224 11.6371 53.6891 11.6051 53.5398 11.5838C53.4011 11.5518 53.2091 11.5358 52.9638 11.5358C52.6331 11.5358 52.3078 11.6264 51.9878 11.8078C51.6678 11.9784 51.4011 12.2398 51.1878 12.5918C50.9851 12.9438 50.8838 13.3918 50.8838 13.9358V18.1758H49.1718ZM59.1136 18.3358C58.3136 18.3358 57.6096 18.1704 57.0016 17.8398C56.3936 17.5091 55.919 17.0344 55.5776 16.4158C55.247 15.7864 55.0816 15.0398 55.0816 14.1758C55.0816 13.3118 55.247 12.5704 55.5776 11.9518C55.919 11.3224 56.3883 10.8424 56.9856 10.5118C57.583 10.1811 58.2603 10.0158 59.0176 10.0158C59.7963 10.0158 60.4576 10.1758 61.0016 10.4958C61.5456 10.8158 61.9616 11.2531 62.2496 11.8078C62.5376 12.3624 62.6816 12.9918 62.6816 13.6958C62.6816 13.8878 62.6763 14.0691 62.6656 14.2398C62.655 14.4104 62.639 14.5598 62.6176 14.6878H56.1856V13.3758H61.8656L61.0176 13.6318C61.0176 12.9064 60.8363 12.3518 60.4736 11.9678C60.111 11.5731 59.615 11.3758 58.9856 11.3758C58.527 11.3758 58.127 11.4824 57.7856 11.6958C57.4443 11.9091 57.183 12.2291 57.0016 12.6558C56.8203 13.0718 56.7296 13.5838 56.7296 14.1918C56.7296 14.7891 56.8256 15.2958 57.0176 15.7118C57.2096 16.1278 57.4816 16.4424 57.8336 16.6558C58.1856 16.8691 58.6016 16.9758 59.0816 16.9758C59.615 16.9758 60.047 16.8744 60.3776 16.6718C60.7083 16.4691 60.9696 16.1864 61.1616 15.8238L62.5216 16.4638C62.3296 16.8478 62.0683 17.1838 61.7376 17.4718C61.4176 17.7491 61.0336 17.9624 60.5856 18.1118C60.1376 18.2611 59.647 18.3358 59.1136 18.3358ZM68.2996 10.0158C68.9396 10.0158 69.4836 10.1118 69.9316 10.3038C70.3903 10.4851 70.7743 10.7464 71.0836 11.0878C71.393 11.4291 71.6276 11.8184 71.7876 12.2558L70.1716 12.8958C70.033 12.4051 69.809 12.0318 69.4996 11.7758C69.201 11.5091 68.8063 11.3758 68.3156 11.3758C67.8356 11.3758 67.425 11.4878 67.0836 11.7118C66.7423 11.9251 66.481 12.2398 66.2996 12.6558C66.129 13.0718 66.0436 13.5838 66.0436 14.1918C66.0436 14.7891 66.1343 15.2958 66.3156 15.7118C66.497 16.1278 66.7583 16.4424 67.0996 16.6558C67.441 16.8691 67.8463 16.9758 68.3156 16.9758C68.6783 16.9758 68.993 16.9171 69.2596 16.7998C69.5263 16.6718 69.745 16.4958 69.9156 16.2718C70.097 16.0371 70.2196 15.7544 70.2836 15.4238L71.8356 15.9518C71.6863 16.4318 71.4516 16.8531 71.1316 17.2158C70.8223 17.5678 70.433 17.8451 69.9636 18.0478C69.4943 18.2398 68.9556 18.3358 68.3476 18.3358C67.5583 18.3358 66.8596 18.1704 66.2516 17.8398C65.6436 17.5091 65.169 17.0344 64.8276 16.4158C64.497 15.7864 64.3316 15.0398 64.3316 14.1758C64.3316 13.3118 64.497 12.5704 64.8276 11.9518C65.169 11.3224 65.6383 10.8424 66.2356 10.5118C66.8436 10.1811 67.5316 10.0158 68.2996 10.0158ZM77.284 10.0158C77.924 10.0158 78.468 10.1118 78.916 10.3038C79.3747 10.4851 79.7587 10.7464 80.068 11.0878C80.3773 11.4291 80.612 11.8184 80.772 12.2558L79.156 12.8958C79.0173 12.4051 78.7933 12.0318 78.484 11.7758C78.1853 11.5091 77.7907 11.3758 77.3 11.3758C76.82 11.3758 76.4093 11.4878 76.068 11.7118C75.7267 11.9251 75.4653 12.2398 75.284 12.6558C75.1133 13.0718 75.028 13.5838 75.028 14.1918C75.028 14.7891 75.1187 15.2958 75.3 15.7118C75.4813 16.1278 75.7427 16.4424 76.084 16.6558C76.4253 16.8691 76.8307 16.9758 77.3 16.9758C77.6627 16.9758 77.9773 16.9171 78.244 16.7998C78.5107 16.6718 78.7293 16.4958 78.9 16.2718C79.0813 16.0371 79.204 15.7544 79.268 15.4238L80.82 15.9518C80.6707 16.4318 80.436 16.8531 80.116 17.2158C79.8067 17.5678 79.4173 17.8451 78.948 18.0478C78.4787 18.2398 77.94 18.3358 77.332 18.3358C76.5427 18.3358 75.844 18.1704 75.236 17.8398C74.628 17.5091 74.1533 17.0344 73.812 16.4158C73.4813 15.7864 73.316 15.0398 73.316 14.1758C73.316 13.3118 73.4813 12.5704 73.812 11.9518C74.1533 11.3224 74.6227 10.8424 75.22 10.5118C75.828 10.1811 76.516 10.0158 77.284 10.0158ZM83.6764 8.83178C83.303 8.83178 83.015 8.74111 82.8124 8.55978C82.6204 8.36778 82.5244 8.10111 82.5244 7.75978C82.5244 7.41845 82.6204 7.15711 82.8124 6.97578C83.015 6.79445 83.303 6.70378 83.6764 6.70378C84.039 6.70378 84.3164 6.79445 84.5084 6.97578C84.711 7.15711 84.8124 7.41845 84.8124 7.75978C84.8124 8.10111 84.711 8.36778 84.5084 8.55978C84.3164 8.74111 84.039 8.83178 83.6764 8.83178ZM84.5244 10.1758V18.1758H82.8124V10.1758H84.5244ZM90.675 10.0158C91.4537 10.0158 92.1417 10.1811 92.739 10.5118C93.3363 10.8424 93.8003 11.3224 94.131 11.9518C94.4723 12.5704 94.643 13.3118 94.643 14.1758C94.643 15.0398 94.4723 15.7864 94.131 16.4158C93.8003 17.0344 93.3363 17.5091 92.739 17.8398C92.1417 18.1704 91.4537 18.3358 90.675 18.3358C89.8963 18.3358 89.2083 18.1704 88.611 17.8398C88.0137 17.5091 87.5443 17.0344 87.203 16.4158C86.8617 15.7864 86.691 15.0398 86.691 14.1758C86.691 13.3118 86.8617 12.5704 87.203 11.9518C87.5443 11.3224 88.0137 10.8424 88.611 10.5118C89.2083 10.1811 89.8963 10.0158 90.675 10.0158ZM90.675 11.3598C90.195 11.3598 89.7843 11.4718 89.443 11.6958C89.1123 11.9091 88.8563 12.2238 88.675 12.6398C88.4937 13.0558 88.403 13.5678 88.403 14.1758C88.403 14.7731 88.4937 15.2851 88.675 15.7118C88.8563 16.1278 89.1123 16.4478 89.443 16.6718C89.7843 16.8851 90.195 16.9918 90.675 16.9918C91.155 16.9918 91.5603 16.8851 91.891 16.6718C92.2217 16.4478 92.4777 16.1278 92.659 15.7118C92.8403 15.2851 92.931 14.7731 92.931 14.1758C92.931 13.5678 92.8403 13.0558 92.659 12.6398C92.4777 12.2238 92.2217 11.9091 91.891 11.6958C91.5603 11.4718 91.155 11.3598 90.675 11.3598ZM90.931 6.23978H92.659L91.075 8.92778H89.763L90.931 6.23978ZM96.7968 18.1758V10.1758H98.3168L98.4288 12.2558L98.2048 12.0318C98.3541 11.5731 98.5674 11.1944 98.8448 10.8958C99.1328 10.5864 99.4688 10.3624 99.8528 10.2238C100.247 10.0851 100.663 10.0158 101.101 10.0158C101.666 10.0158 102.173 10.1278 102.621 10.3518C103.079 10.5651 103.442 10.8904 103.709 11.3278C103.975 11.7651 104.109 12.3198 104.109 12.9918V18.1758H102.397V13.5198C102.397 12.7304 102.231 12.1864 101.901 11.8878C101.581 11.5784 101.175 11.4238 100.685 11.4238C100.333 11.4238 99.9914 11.5091 99.6608 11.6798C99.3301 11.8398 99.0528 12.1011 98.8288 12.4638C98.6154 12.8264 98.5088 13.3118 98.5088 13.9198V18.1758H96.7968Z" fill="#505050"/>
</svg>
